<?xml version="1.0" encoding="utf-8"?>
<!-- Generator: Adobe Illustrator 24.1.1, SVG Export Plug-In . SVG Version: 6.00 Build 0)  -->
<svg version="1.1" id="Capa_1" focusable="false" xmlns="http://www.w3.org/2000/svg" xmlns:xlink="http://www.w3.org/1999/xlink"
	 x="0px" y="0px" viewBox="0 0 137.5 122.43" style="enable-background:new 0 0 137.5 122.43;" xml:space="preserve">
<style type="text/css">
	.st0{fill:#FFFFFF;}
	.st1{fill:#C01918;}
	.st2{fill:none;}
	.st3{font-family:'MyriadPro-Regular';}
	.st4{font-size:18px;}
</style>
<path class="st0" d="M69.07,105.99c6.03,0,10.91-4.89,10.91-10.92H58.16C58.16,101.1,63.05,105.99,69.07,105.99z M105.82,80.45
	c-3.3-3.54-9.46-8.87-9.46-26.32c0-13.26-9.29-23.87-21.83-26.47V24.1c0-3.01-2.44-5.46-5.46-5.46s-5.46,2.44-5.46,5.46v3.56
	c-12.53,2.6-21.83,13.21-21.83,26.47c0,17.45-6.17,22.78-9.46,26.32c-1.02,1.1-1.48,2.42-1.47,3.7c0.02,2.8,2.21,5.46,5.48,5.46
	h65.48c3.26,0,5.46-2.66,5.48-5.46C107.29,82.87,106.84,81.55,105.82,80.45z"/>
<ellipse class="st1" cx="95.71" cy="35.79" rx="18.64" ry="17.36"/>
<rect x="91.21" y="28.07" class="st2" width="12.21" height="14.14"/>
<text transform="matrix(1 0 0 1 91.2145 40.8515)" class="st0 st3 st4">5</text>
</svg>
