<?xml version="1.0" encoding="utf-8"?>
<!-- Generator: Adobe Illustrator 24.1.1, SVG Export Plug-In . SVG Version: 6.00 Build 0)  -->
<svg version="1.1" id="Capa_1" xmlns="http://www.w3.org/2000/svg" xmlns:xlink="http://www.w3.org/1999/xlink" x="0px" y="0px"
	 viewBox="0 0 291.3 193.8" style="enable-background:new 0 0 291.3 193.8;" xml:space="preserve">
<style type="text/css">
	.st0{fill:#FFFFFF;}
	.st1{fill:#F9D9E2;}
	.st2{fill:#010202;}
	.st3{fill:none;stroke:#FFFFFF;stroke-miterlimit:10;}
</style>
<rect x="0.9" y="-0.3" class="st0" width="290.4" height="194.1"/>
<path class="st1" d="M222.4,144.4l-59.6,32c-5.8,3.1-13.1,0.9-16.2-4.9L90.5,67.1c-3.1-5.8-0.9-13.1,4.9-16.2l59.6-32
	c5.8-3.1,13.1-0.9,16.2,4.9l56.1,104.4C230.5,134,228.3,141.3,222.4,144.4z"/>
<path class="st2" d="M210.5,139.2l-45.3,24.3c-5.8,3.1-13.1,0.9-16.2-4.9l-46.4-86.3c-3.1-5.8-0.9-13.1,4.9-16.2l45.3-24.3
	c5.8-3.1,13.1-0.9,16.2,4.9l46.4,86.3C218.5,128.8,216.3,136.1,210.5,139.2z"/>
<line class="st3" x1="124.2" y1="99.1" x2="152.5" y2="83.3"/>
<line class="st3" x1="135.8" y1="113.3" x2="185.1" y2="86.3"/>
<line class="st3" x1="144.4" y1="131.7" x2="181.6" y2="111.6"/>
</svg>
