<?xml version="1.0" encoding="utf-8"?>
<!-- Generator: Adobe Illustrator 24.1.1, SVG Export Plug-In . SVG Version: 6.00 Build 0)  -->
<svg version="1.1" id="Capa_1" xmlns="http://www.w3.org/2000/svg" xmlns:xlink="http://www.w3.org/1999/xlink" x="0px" y="0px"
	 viewBox="0 0 145.29 132.43" style="enable-background:new 0 0 145.29 132.43;" xml:space="preserve">
<style type="text/css">
	.st0{stroke:#FFFFFF;stroke-miterlimit:10;}
	.st1{fill:#FFFFFF;}
</style>
<rect x="-25.07" y="-29.18" class="st0" width="187.71" height="174.11"/>
<g>
	<path class="st1" d="M30.05,28.38v-4.13c0-1.38,0.83-2.06,2.5-2.06h19.96c1.42,0,2.13,0.69,2.13,2.06v71.95
		c0,1,0.06,1.65,0.18,1.94c0.12,0.29,0.49,0.56,1.11,0.81c1.47,0.58,2.21,1.88,2.21,3.88c0,2.29-0.1,3.67-0.31,4.13
		s-0.87,0.69-2,0.69H31.61c-0.58-0.08-0.96-0.35-1.12-0.78c-0.17-0.44-0.25-1.6-0.25-3.47c0-2.25,0.54-3.57,1.63-3.94
		c1.33-0.46,2-1.29,2-2.5V34.57c0-2.42-0.9-3.88-2.69-4.38C30.43,29.98,30.05,29.38,30.05,28.38z M47.57,4.41
		c4.71,0,7.07,1.58,7.07,4.75c0,2.5-1.58,4.62-4.72,6.35s-6.72,2.59-10.73,2.59c-5.17,0-7.76-1.73-7.76-5.19
		c0-2.75,1.81-4.86,5.44-6.32C40.5,5.14,44.07,4.41,47.57,4.41z"/>
	<path class="st1" d="M87.42,30.69c4.96-6.26,10.64-9.38,17.02-9.38c4.36,0,7.69,1.41,10,4.22c2.3,2.81,3.46,6.35,3.46,10.6v59.94
		c0,1.33,0.52,2.36,1.56,3.07c0.96,0.58,1.44,2.09,1.44,4.5c0,1.92-0.15,3.07-0.47,3.44c-0.31,0.38-0.97,0.56-1.97,0.56h-17.58
		c-2.5-2.13-3.75-4.9-3.75-8.32v-59.5c0-3.25-1.33-4.88-4-4.88c-1.75,0-3.65,0.92-5.69,2.75v58.37c0,1.5,0.73,2.67,2.19,3.5
		c0.88,0.5,1.31,1.42,1.31,2.75v3.19c0,1.42-1.02,2.13-3.07,2.13H65.65c-1.08,0-1.77-0.15-2.06-0.47c-0.29-0.31-0.44-1.09-0.44-2.34
		v-2.31c0-1.21,0.38-2.06,1.13-2.57c1-0.71,1.65-1.38,1.94-2c0.29-0.63,0.44-2,0.44-4.13V32.63c0-1.46-0.71-2.52-2.13-3.19
		c-0.79-0.38-1.19-1.04-1.19-2v-3.32c0-1.29,0.58-1.94,1.75-1.94h20.4c0.88,0,1.42,0.13,1.63,0.38c0.21,0.25,0.31,0.77,0.31,1.56
		V30.69z"/>
</g>
</svg>
