<?xml version="1.0" encoding="utf-8"?>
<!-- Generator: Adobe Illustrator 24.1.1, SVG Export Plug-In . SVG Version: 6.00 Build 0)  -->
<svg version="1.1" id="Capa_1" xmlns="http://www.w3.org/2000/svg" xmlns:xlink="http://www.w3.org/1999/xlink" x="0px" y="0px"
	 viewBox="0 0 291.3 193.8" style="enable-background:new 0 0 291.3 193.8;" xml:space="preserve">
<style type="text/css">
	.st0{fill:#FFFFFF;}
	.st1{fill:#F5B0C4;}
	.st2{fill:#ED6A97;}
</style>
<rect x="0.9" y="-0.3" class="st0" width="290.4" height="194.1"/>
<rect x="28.9" y="24.1" class="st1" width="60.7" height="50.7"/>
<rect x="113" y="24.1" class="st1" width="60.7" height="50.7"/>
<rect x="194.5" y="24.1" class="st1" width="60.7" height="50.7"/>
<rect x="28.9" y="113.4" class="st1" width="60.7" height="50.7"/>
<rect x="113" y="113.4" class="st1" width="60.7" height="50.7"/>
<rect x="194.5" y="113.4" class="st1" width="60.7" height="50.7"/>
<ellipse class="st1" cx="100.9" cy="48.6" rx="5" ry="5.4"/>
<ellipse class="st1" cx="185" cy="48.6" rx="5" ry="5.4"/>
<ellipse class="st1" cx="100.9" cy="136.6" rx="5" ry="5.4"/>
<ellipse class="st1" cx="185" cy="136.6" rx="5" ry="5.4"/>
<rect x="39.1" y="35.1" class="st2" width="40.3" height="28.7"/>
<rect x="123.2" y="35.1" class="st2" width="40.3" height="28.7"/>
<rect x="204.7" y="35.1" class="st2" width="40.3" height="28.7"/>
<rect x="39.1" y="124.4" class="st2" width="40.3" height="28.7"/>
<rect x="123.2" y="124.4" class="st2" width="40.3" height="28.7"/>
<rect x="204.7" y="124.4" class="st2" width="40.3" height="28.7"/>
</svg>
