<?xml version="1.0" encoding="utf-8"?>
<!-- Generator: Adobe Illustrator 24.1.1, SVG Export Plug-In . SVG Version: 6.00 Build 0)  -->
<svg version="1.1" id="Capa_1" xmlns="http://www.w3.org/2000/svg" xmlns:xlink="http://www.w3.org/1999/xlink" x="0px" y="0px"
	 viewBox="0 0 291.3 193.8" style="enable-background:new 0 0 291.3 193.8;" xml:space="preserve">
<style type="text/css">
	.st0{fill:#FFFFFF;}
	.st1{fill:url(#SVGID_1_);}
	.st2{fill:#020202;}
</style>
<rect x="0.9" y="-0.3" class="st0" width="290.4" height="194.1"/>
<linearGradient id="SVGID_1_" gradientUnits="userSpaceOnUse" x1="3.864971e-02" y1="139.3415" x2="291.2798" y2="139.3415">
	<stop  offset="0" style="stop-color:#FFFFFF"/>
	<stop  offset="1" style="stop-color:#020202"/>
</linearGradient>
<path class="st1" d="M69,84.8l-7.2,34.7c0,0-40.9,56.2-61.8,49.2l0.1,25.2l291.2-0.1l-0.2-92.5l-22.7-1.7l13,16.1
	c0,0-1.3,28.3-16.9,18c0,0-35.8,14.8-55.4-1.9h-22.2l-14.3-23.1L142,97.7l2-12.9"/>
<path class="st2" d="M22.8,92.7c0,0,87.4,14.1,168.3-3.9L136.2,85c0,0-35.4-14.8-58.5,0L22.8,92.7z"/>
</svg>
