<?xml version="1.0" encoding="utf-8"?>
<!-- Generator: Adobe Illustrator 24.1.1, SVG Export Plug-In . SVG Version: 6.00 Build 0)  -->
<svg version="1.1" id="Capa_1" xmlns="http://www.w3.org/2000/svg" xmlns:xlink="http://www.w3.org/1999/xlink" x="0px" y="0px"
	 viewBox="0 0 291.3 193.8" style="enable-background:new 0 0 291.3 193.8;" xml:space="preserve">
<style type="text/css">
	.st0{fill:#FFFFFF;}
	.st1{fill:none;stroke:#EE90AA;stroke-miterlimit:10;}
	.st2{fill:#010202;}
	.st3{fill:none;stroke:#8FCEC6;stroke-miterlimit:10;}
	.st4{fill:#BB5A73;}
	.st5{fill:none;stroke:#FFFFFF;stroke-miterlimit:10;}
	.st6{fill:#D6CCE6;}
	.st7{fill:#97CABE;}
	.st8{fill:#DDB9C4;}
	.st9{fill:#F9EB54;}
	.st10{fill:none;stroke:#DAADBC;stroke-miterlimit:10;}
	.st11{fill:none;stroke:#CCDCE5;stroke-miterlimit:10;}
	.st12{fill:#80C8BC;}
	.st13{fill:#DFB9C5;}
</style>
<rect x="0.7" y="-0.3" class="st0" width="290.4" height="194.1"/>
<rect x="57.2" y="24.8" class="st1" width="72.8" height="129.9"/>
<rect x="147.2" y="24.8" class="st2" width="72.8" height="129.9"/>
<rect x="63.8" y="128" class="st3" width="58.5" height="19.9"/>
<rect x="148.1" y="49.9" class="st0" width="70.7" height="23.1"/>
<rect x="194.5" y="130.7" class="st4" width="16.3" height="16.3"/>
<line class="st5" x1="157.2" y1="80.1" x2="181.2" y2="80.2"/>
<line class="st5" x1="156.2" y1="98.1" x2="180.2" y2="98.2"/>
<line class="st5" x1="156.2" y1="116.1" x2="197.2" y2="116.3"/>
<g>
	<path class="st6" d="M88.9,144.1c3.4,2.7,6.9,5.3,10.6,7.6c3.6,2.4,7.4,4.5,11.2,6.4c3.8,1.9,7.8,3.6,11.8,4.9
		c4,1.3,8.2,2.2,12.4,2.6c4.2,0.4,8.4,0.2,12.5-0.7c4.1-0.9,8.1-2.3,11.7-4.5l0.7-0.4l0.7-0.4l1.3-0.9c0.9-0.6,1.8-1.2,2.6-1.9
		l2.5-2c0.8-0.7,1.5-1.5,2.3-2.2l1.2-1.1c0.4-0.4,0.7-0.8,1.1-1.2l2.2-2.4c0.8-0.8,1.3-1.7,2-2.5l2-2.6c-1.1,1.9-2.1,3.8-3.4,5.6
		l-1.9,2.7c-0.3,0.4-0.6,0.9-1,1.3l-1.1,1.2c-0.7,0.8-1.5,1.7-2.2,2.5l-2.4,2.3c-0.8,0.8-1.7,1.4-2.6,2.1l-1.3,1L161,162l-0.7,0.4
		l-2.9,1.7c-1,0.5-2,0.9-3,1.4l-0.8,0.4c-0.3,0.1-0.5,0.2-0.8,0.3l-1.6,0.5c-0.5,0.2-1.1,0.4-1.6,0.5l-1.6,0.4
		c-4.4,1-8.9,1.3-13.4,0.9c-8.9-0.9-17.4-4.1-25.1-8.4c-3.8-2.2-7.5-4.6-10.9-7.3C95.1,150.1,91.8,147.3,88.9,144.1z"/>
</g>
<g>
	<path class="st7" d="M118.4,35.4c1.1-2.4,2.5-4.7,4.1-6.9c1.6-2.2,3.3-4.2,5.3-6.1c1.9-1.9,4.1-3.5,6.5-4.9c2.4-1.4,5-2.5,7.7-3.1
		c2.7-0.6,5.6-0.8,8.3-0.4c2.8,0.4,5.4,1.2,7.9,2.4c4.9,2.5,9,6.1,12.2,10.3c-4.1-3.3-8.5-6.3-13.2-8.2c-4.7-1.9-9.8-2.4-14.6-1.2
		c-2.4,0.5-4.8,1.5-7,2.7c-2.2,1.2-4.3,2.6-6.4,4.2C125.4,27.5,121.7,31.3,118.4,35.4z"/>
</g>
<g>
	<path class="st8" d="M209.1,33.5c0.8-3.3,2.2-6.4,4-9.3c1.7-2.9,4-5.6,6.6-7.7c2.7-2.1,5.9-3.7,9.2-4.3c3.4-0.6,6.9-0.2,10.1,0.7
		c-1.7-0.2-3.3-0.5-5-0.5c-1.7,0-3.3,0.1-4.9,0.5c-1.6,0.4-3.2,0.9-4.6,1.6c-1.5,0.7-2.9,1.6-4.1,2.7c-2.6,2.1-4.7,4.6-6.6,7.4
		c-0.9,1.4-1.8,2.8-2.5,4.3C210.4,30.4,209.7,31.9,209.1,33.5z"/>
</g>
<circle class="st9" cx="92.7" cy="66.3" r="11.6"/>
<line class="st10" x1="65.3" y1="102.3" x2="95.6" y2="102.4"/>
<line class="st11" x1="65.3" y1="111.3" x2="95.6" y2="111.4"/>
<circle class="st12" cx="118.7" cy="37.5" r="6.3"/>
<circle class="st13" cx="232.4" cy="13" r="6.3"/>
</svg>
