<?xml version="1.0" encoding="utf-8"?>
<!-- Generator: Adobe Illustrator 24.1.1, SVG Export Plug-In . SVG Version: 6.00 Build 0)  -->
<svg version="1.1" id="Capa_1" xmlns="http://www.w3.org/2000/svg" xmlns:xlink="http://www.w3.org/1999/xlink" x="0px" y="0px"
	 viewBox="0 0 291.3 193.8" style="enable-background:new 0 0 291.3 193.8;" xml:space="preserve">
<style type="text/css">
	.st0{fill:#FFFFFF;}
	.st1{fill:#030405;}
	.st2{fill:none;stroke:#D27A94;stroke-width:12;stroke-miterlimit:10;}
	.st3{fill:none;stroke:#D27A94;stroke-miterlimit:10;}
</style>
<rect x="0.9" y="-0.3" class="st0" width="290.4" height="194.1"/>
<rect x="31.1" y="41.8" class="st1" width="233.4" height="76.5"/>
<rect x="39.8" y="21.3" class="st1" width="11.6" height="12.9"/>
<rect x="75.8" y="25.7" class="st1" width="11.6" height="5.5"/>
<rect x="99.8" y="25.7" class="st1" width="11.6" height="5.5"/>
<rect x="124.8" y="25.7" class="st1" width="11.6" height="5.5"/>
<rect x="152.8" y="25.7" class="st1" width="11.6" height="5.5"/>
<rect x="230.8" y="25.7" class="st1" width="11.6" height="5.5"/>
<ellipse class="st2" cx="199.6" cy="86.1" rx="32.8" ry="21.9"/>
<line class="st3" x1="54.9" y1="74.6" x2="105.4" y2="74.6"/>
<line class="st3" x1="54.9" y1="88.6" x2="105.4" y2="88.6"/>
<line class="st3" x1="55.6" y1="148.6" x2="95.8" y2="148.6"/>
<line class="st3" x1="55.9" y1="166.6" x2="69.1" y2="166.6"/>
<line class="st3" x1="115.6" y1="148.6" x2="155.8" y2="148.6"/>
<line class="st3" x1="115.9" y1="166.6" x2="129.1" y2="166.6"/>
<line class="st3" x1="169.6" y1="148.6" x2="209.8" y2="148.6"/>
<line class="st3" x1="169.9" y1="166.6" x2="183.1" y2="166.6"/>
</svg>
