<?xml version="1.0" encoding="utf-8"?>
<!-- Generator: Adobe Illustrator 24.1.1, SVG Export Plug-In . SVG Version: 6.00 Build 0)  -->
<svg version="1.1" id="Capa_1" xmlns="http://www.w3.org/2000/svg" xmlns:xlink="http://www.w3.org/1999/xlink" x="0px" y="0px"
	 viewBox="0 0 291.3 193.8" style="enable-background:new 0 0 291.3 193.8;" xml:space="preserve">
<style type="text/css">
	.st0{fill:#FFFFFF;}
	.st1{fill:none;stroke:#D27A94;stroke-miterlimit:10;}
	.st2{fill:#D27A94;}
</style>
<rect x="0.9" y="-0.3" class="st0" width="290.4" height="194.1"/>
<line class="st1" x1="22.3" y1="61.1" x2="45.4" y2="61.1"/>
<line class="st1" x1="154" y1="61.3" x2="177.2" y2="61.3"/>
<path class="st1" d="M129.9,92.2H25.6c-3.3,0-6-2.7-6-6v-3.3c0-3.3,2.7-6,6-6h104.3c3.3,0,6,2.7,6,6v3.3
	C135.9,89.5,133.2,92.2,129.9,92.2z"/>
<path class="st1" d="M129.9,113.4H25.6c-3.3,0-6-2.7-6-6v-3.3c0-3.3,2.7-6,6-6h104.3c3.3,0,6,2.7,6,6v3.3
	C135.9,110.7,133.2,113.4,129.9,113.4z"/>
<path class="st1" d="M129.9,133.5H25.6c-3.3,0-6-2.7-6-6v-3.3c0-3.3,2.7-6,6-6h104.3c3.3,0,6,2.7,6,6v3.3
	C135.9,130.8,133.2,133.5,129.9,133.5z"/>
<path class="st1" d="M264.8,87.4H156.5c-2.2,0-4-1.8-4-4v-2.5c0-2.2,1.8-4,4-4h108.3c2.2,0,4,1.8,4,4v2.5
	C268.8,85.6,267,87.4,264.8,87.4z"/>
<path class="st1" d="M264.8,101.9H156.5c-2.2,0-4-1.8-4-4v-2.5c0-2.2,1.8-4,4-4h108.3c2.2,0,4,1.8,4,4v2.5
	C268.8,100.1,267,101.9,264.8,101.9z"/>
<path class="st1" d="M264.8,115.6H156.5c-2.2,0-4-1.8-4-4v-2.5c0-2.2,1.8-4,4-4h108.3c2.2,0,4,1.8,4,4v2.5
	C268.8,113.9,267,115.6,264.8,115.6z"/>
<line class="st1" x1="157.7" y1="83" x2="180.8" y2="83"/>
<line class="st1" x1="238.1" y1="83" x2="261.2" y2="83"/>
<line class="st1" x1="196.8" y1="109.8" x2="219.9" y2="109.8"/>
<ellipse class="st2" cx="36.9" cy="84.6" rx="4.8" ry="4.1"/>
<ellipse class="st2" cx="36.9" cy="104.7" rx="4.8" ry="4.1"/>
<ellipse class="st2" cx="36.9" cy="125.9" rx="4.8" ry="4.1"/>
</svg>
